<svg width="231" height="185" viewBox="0 0 231 185" fill="none" xmlns="http://www.w3.org/2000/svg">
<path d="M16.9176 167.656H13.1847C13.1165 167.173 12.9773 166.744 12.767 166.369C12.5568 165.989 12.2869 165.665 11.9574 165.398C11.6278 165.131 11.2472 164.926 10.8153 164.784C10.3892 164.642 9.92614 164.571 9.42614 164.571C8.52273 164.571 7.7358 164.795 7.06534 165.244C6.39489 165.687 5.875 166.335 5.50568 167.188C5.13636 168.034 4.9517 169.062 4.9517 170.273C4.9517 171.517 5.13636 172.562 5.50568 173.409C5.88068 174.256 6.40341 174.895 7.07386 175.327C7.74432 175.759 8.51989 175.974 9.40057 175.974C9.89489 175.974 10.3523 175.909 10.7727 175.778C11.1989 175.648 11.5767 175.457 11.9062 175.207C12.2358 174.952 12.5085 174.642 12.7244 174.278C12.946 173.915 13.0994 173.5 13.1847 173.034L16.9176 173.051C16.821 173.852 16.5795 174.625 16.1932 175.369C15.8125 176.108 15.2983 176.77 14.6506 177.355C14.0085 177.935 13.2415 178.395 12.3494 178.736C11.4631 179.071 10.4602 179.239 9.34091 179.239C7.78409 179.239 6.39205 178.886 5.16477 178.182C3.94318 177.477 2.97727 176.457 2.26705 175.122C1.5625 173.787 1.21023 172.17 1.21023 170.273C1.21023 168.369 1.56818 166.75 2.28409 165.415C3 164.08 3.97159 163.062 5.19886 162.364C6.42614 161.659 7.80682 161.307 9.34091 161.307C10.3523 161.307 11.2898 161.449 12.1534 161.733C13.0227 162.017 13.7926 162.432 14.4631 162.977C15.1335 163.517 15.679 164.179 16.0994 164.963C16.5256 165.747 16.7983 166.645 16.9176 167.656ZM25.4105 179.256C24.0866 179.256 22.9418 178.974 21.9759 178.412C21.0156 177.844 20.2741 177.054 19.7514 176.043C19.2287 175.026 18.9673 173.847 18.9673 172.506C18.9673 171.153 19.2287 169.972 19.7514 168.96C20.2741 167.943 21.0156 167.153 21.9759 166.591C22.9418 166.023 24.0866 165.739 25.4105 165.739C26.7344 165.739 27.8764 166.023 28.8366 166.591C29.8026 167.153 30.5469 167.943 31.0696 168.96C31.5923 169.972 31.8537 171.153 31.8537 172.506C31.8537 173.847 31.5923 175.026 31.0696 176.043C30.5469 177.054 29.8026 177.844 28.8366 178.412C27.8764 178.974 26.7344 179.256 25.4105 179.256ZM25.4276 176.443C26.0298 176.443 26.5327 176.273 26.9361 175.932C27.3395 175.585 27.6435 175.114 27.848 174.517C28.0582 173.92 28.1634 173.241 28.1634 172.48C28.1634 171.719 28.0582 171.04 27.848 170.443C27.6435 169.847 27.3395 169.375 26.9361 169.028C26.5327 168.682 26.0298 168.509 25.4276 168.509C24.8196 168.509 24.3082 168.682 23.8935 169.028C23.4844 169.375 23.1747 169.847 22.9645 170.443C22.7599 171.04 22.6577 171.719 22.6577 172.48C22.6577 173.241 22.7599 173.92 22.9645 174.517C23.1747 175.114 23.4844 175.585 23.8935 175.932C24.3082 176.273 24.8196 176.443 25.4276 176.443ZM37.8452 171.432V179H34.2145V165.909H37.6747V168.219H37.8281C38.1179 167.457 38.6037 166.855 39.2855 166.412C39.9673 165.963 40.794 165.739 41.7656 165.739C42.6747 165.739 43.4673 165.938 44.1435 166.335C44.8196 166.733 45.3452 167.301 45.7202 168.04C46.0952 168.773 46.2827 169.648 46.2827 170.665V179H42.652V171.312C42.6577 170.511 42.4531 169.886 42.0384 169.438C41.6236 168.983 41.0526 168.756 40.3253 168.756C39.8366 168.756 39.4048 168.861 39.0298 169.071C38.6605 169.281 38.3707 169.588 38.1605 169.991C37.956 170.389 37.8509 170.869 37.8452 171.432ZM56.1072 165.909V168.636H48.2237V165.909H56.1072ZM50.0135 162.773H53.6442V174.977C53.6442 175.312 53.6953 175.574 53.7976 175.761C53.8999 175.943 54.0419 176.071 54.2237 176.145C54.4112 176.219 54.6271 176.256 54.8714 176.256C55.0419 176.256 55.2124 176.241 55.3828 176.213C55.5533 176.179 55.6839 176.153 55.7749 176.136L56.3459 178.838C56.1641 178.895 55.9084 178.96 55.5788 179.034C55.2493 179.114 54.8487 179.162 54.3771 179.179C53.5021 179.213 52.7351 179.097 52.076 178.83C51.4226 178.562 50.9141 178.148 50.5504 177.585C50.1868 177.023 50.0078 176.312 50.0135 175.455V162.773ZM58.4723 179V165.909H61.9922V168.193H62.1286C62.3672 167.381 62.7678 166.767 63.3303 166.352C63.8928 165.932 64.5405 165.722 65.2734 165.722C65.4553 165.722 65.6513 165.733 65.8615 165.756C66.0717 165.778 66.2564 165.81 66.4155 165.849V169.071C66.245 169.02 66.0092 168.974 65.7081 168.935C65.407 168.895 65.1314 168.875 64.8814 168.875C64.3473 168.875 63.87 168.991 63.4496 169.224C63.0348 169.452 62.7053 169.77 62.4609 170.179C62.2223 170.588 62.103 171.06 62.103 171.594V179H58.4723ZM73.598 179.256C72.2741 179.256 71.1293 178.974 70.1634 178.412C69.2031 177.844 68.4616 177.054 67.9389 176.043C67.4162 175.026 67.1548 173.847 67.1548 172.506C67.1548 171.153 67.4162 169.972 67.9389 168.96C68.4616 167.943 69.2031 167.153 70.1634 166.591C71.1293 166.023 72.2741 165.739 73.598 165.739C74.9219 165.739 76.0639 166.023 77.0241 166.591C77.9901 167.153 78.7344 167.943 79.2571 168.96C79.7798 169.972 80.0412 171.153 80.0412 172.506C80.0412 173.847 79.7798 175.026 79.2571 176.043C78.7344 177.054 77.9901 177.844 77.0241 178.412C76.0639 178.974 74.9219 179.256 73.598 179.256ZM73.6151 176.443C74.2173 176.443 74.7202 176.273 75.1236 175.932C75.527 175.585 75.831 175.114 76.0355 174.517C76.2457 173.92 76.3509 173.241 76.3509 172.48C76.3509 171.719 76.2457 171.04 76.0355 170.443C75.831 169.847 75.527 169.375 75.1236 169.028C74.7202 168.682 74.2173 168.509 73.6151 168.509C73.0071 168.509 72.4957 168.682 72.081 169.028C71.6719 169.375 71.3622 169.847 71.152 170.443C70.9474 171.04 70.8452 171.719 70.8452 172.48C70.8452 173.241 70.9474 173.92 71.152 174.517C71.3622 175.114 71.6719 175.585 72.081 175.932C72.4957 176.273 73.0071 176.443 73.6151 176.443ZM86.0327 161.545V179H82.402V161.545H86.0327ZM94.907 179.256C93.5604 179.256 92.4013 178.983 91.4297 178.438C90.4638 177.886 89.7195 177.108 89.1967 176.102C88.674 175.091 88.4126 173.895 88.4126 172.514C88.4126 171.168 88.674 169.986 89.1967 168.969C89.7195 167.952 90.4553 167.159 91.4041 166.591C92.3587 166.023 93.478 165.739 94.7621 165.739C95.6257 165.739 96.4297 165.878 97.174 166.156C97.924 166.429 98.5774 166.841 99.1342 167.392C99.6967 167.943 100.134 168.636 100.447 169.472C100.759 170.301 100.915 171.273 100.915 172.386V173.384H89.8615V171.134H97.4979C97.4979 170.611 97.3842 170.148 97.157 169.744C96.9297 169.341 96.6143 169.026 96.2109 168.798C95.8132 168.565 95.3501 168.449 94.8217 168.449C94.2706 168.449 93.782 168.577 93.3558 168.832C92.9354 169.082 92.6058 169.42 92.3672 169.847C92.1286 170.267 92.0064 170.736 92.0007 171.253V173.392C92.0007 174.04 92.12 174.599 92.3587 175.071C92.603 175.543 92.9467 175.906 93.3899 176.162C93.8331 176.418 94.3587 176.545 94.9666 176.545C95.37 176.545 95.7393 176.489 96.0746 176.375C96.4098 176.261 96.6967 176.091 96.9354 175.864C97.174 175.636 97.3558 175.358 97.4808 175.028L100.839 175.25C100.668 176.057 100.319 176.761 99.7905 177.364C99.2678 177.96 98.5916 178.426 97.7621 178.761C96.9382 179.091 95.9865 179.256 94.907 179.256ZM108.908 179V161.545H120.464V164.588H112.598V168.747H119.697V171.79H112.598V179H108.908ZM122.879 179V165.909H126.509V179H122.879ZM124.702 164.222C124.163 164.222 123.7 164.043 123.313 163.685C122.933 163.321 122.742 162.886 122.742 162.381C122.742 161.881 122.933 161.452 123.313 161.094C123.7 160.73 124.163 160.548 124.702 160.548C125.242 160.548 125.702 160.73 126.083 161.094C126.469 161.452 126.663 161.881 126.663 162.381C126.663 162.886 126.469 163.321 126.083 163.685C125.702 164.043 125.242 164.222 124.702 164.222ZM133.048 171.432V179H129.418V165.909H132.878V168.219H133.031C133.321 167.457 133.807 166.855 134.489 166.412C135.17 165.963 135.997 165.739 136.969 165.739C137.878 165.739 138.67 165.938 139.347 166.335C140.023 166.733 140.548 167.301 140.923 168.04C141.298 168.773 141.486 169.648 141.486 170.665V179H137.855V171.312C137.861 170.511 137.656 169.886 137.241 169.438C136.827 168.983 136.256 168.756 135.528 168.756C135.04 168.756 134.608 168.861 134.233 169.071C133.864 169.281 133.574 169.588 133.364 169.991C133.159 170.389 133.054 170.869 133.048 171.432ZM148.08 179.247C147.245 179.247 146.501 179.102 145.847 178.812C145.194 178.517 144.677 178.082 144.296 177.509C143.921 176.929 143.734 176.207 143.734 175.344C143.734 174.616 143.867 174.006 144.134 173.511C144.401 173.017 144.765 172.619 145.225 172.318C145.685 172.017 146.208 171.79 146.793 171.636C147.384 171.483 148.004 171.375 148.651 171.312C149.413 171.233 150.026 171.159 150.492 171.091C150.958 171.017 151.296 170.909 151.506 170.767C151.717 170.625 151.822 170.415 151.822 170.136V170.085C151.822 169.545 151.651 169.128 151.31 168.832C150.975 168.537 150.498 168.389 149.879 168.389C149.225 168.389 148.705 168.534 148.319 168.824C147.933 169.108 147.677 169.466 147.552 169.898L144.194 169.625C144.364 168.83 144.7 168.142 145.2 167.562C145.7 166.977 146.344 166.528 147.134 166.216C147.93 165.898 148.85 165.739 149.896 165.739C150.623 165.739 151.319 165.824 151.984 165.994C152.654 166.165 153.248 166.429 153.765 166.787C154.288 167.145 154.7 167.605 155.001 168.168C155.302 168.724 155.452 169.392 155.452 170.17V179H152.009V177.185H151.907C151.697 177.594 151.415 177.955 151.063 178.267C150.711 178.574 150.288 178.815 149.793 178.991C149.299 179.162 148.728 179.247 148.08 179.247ZM149.12 176.741C149.654 176.741 150.126 176.636 150.535 176.426C150.944 176.21 151.265 175.92 151.498 175.557C151.731 175.193 151.847 174.781 151.847 174.321V172.932C151.734 173.006 151.577 173.074 151.379 173.136C151.185 173.193 150.967 173.247 150.722 173.298C150.478 173.344 150.234 173.386 149.989 173.426C149.745 173.46 149.523 173.491 149.325 173.52C148.898 173.582 148.526 173.682 148.208 173.818C147.89 173.955 147.643 174.139 147.467 174.372C147.29 174.599 147.202 174.884 147.202 175.224C147.202 175.719 147.381 176.097 147.739 176.358C148.103 176.614 148.563 176.741 149.12 176.741ZM161.9 171.432V179H158.269V165.909H161.729V168.219H161.883C162.173 167.457 162.658 166.855 163.34 166.412C164.022 165.963 164.849 165.739 165.82 165.739C166.729 165.739 167.522 165.938 168.198 166.335C168.874 166.733 169.4 167.301 169.775 168.04C170.15 168.773 170.337 169.648 170.337 170.665V179H166.707V171.312C166.712 170.511 166.508 169.886 166.093 169.438C165.678 168.983 165.107 168.756 164.38 168.756C163.891 168.756 163.46 168.861 163.085 169.071C162.715 169.281 162.425 169.588 162.215 169.991C162.011 170.389 161.906 170.869 161.9 171.432ZM179.114 179.256C177.773 179.256 176.619 178.972 175.653 178.403C174.693 177.83 173.955 177.034 173.438 176.017C172.926 175 172.67 173.83 172.67 172.506C172.67 171.165 172.929 169.989 173.446 168.977C173.969 167.96 174.71 167.168 175.67 166.599C176.631 166.026 177.773 165.739 179.097 165.739C180.239 165.739 181.239 165.946 182.097 166.361C182.955 166.776 183.634 167.358 184.134 168.108C184.634 168.858 184.909 169.739 184.96 170.75H181.534C181.438 170.097 181.182 169.571 180.767 169.173C180.358 168.77 179.821 168.568 179.156 168.568C178.594 168.568 178.102 168.722 177.682 169.028C177.267 169.33 176.943 169.77 176.71 170.349C176.477 170.929 176.361 171.631 176.361 172.455C176.361 173.29 176.474 174 176.702 174.585C176.935 175.17 177.261 175.616 177.682 175.923C178.102 176.23 178.594 176.384 179.156 176.384C179.571 176.384 179.943 176.298 180.273 176.128C180.608 175.957 180.884 175.71 181.099 175.386C181.321 175.057 181.466 174.662 181.534 174.202H184.96C184.903 175.202 184.631 176.082 184.142 176.844C183.659 177.599 182.991 178.19 182.139 178.616C181.287 179.043 180.278 179.256 179.114 179.256ZM193.251 179.256C191.904 179.256 190.745 178.983 189.773 178.438C188.808 177.886 188.063 177.108 187.54 176.102C187.018 175.091 186.756 173.895 186.756 172.514C186.756 171.168 187.018 169.986 187.54 168.969C188.063 167.952 188.799 167.159 189.748 166.591C190.702 166.023 191.822 165.739 193.106 165.739C193.969 165.739 194.773 165.878 195.518 166.156C196.268 166.429 196.921 166.841 197.478 167.392C198.04 167.943 198.478 168.636 198.79 169.472C199.103 170.301 199.259 171.273 199.259 172.386V173.384H188.205V171.134H195.842C195.842 170.611 195.728 170.148 195.501 169.744C195.273 169.341 194.958 169.026 194.555 168.798C194.157 168.565 193.694 168.449 193.165 168.449C192.614 168.449 192.126 168.577 191.7 168.832C191.279 169.082 190.95 169.42 190.711 169.847C190.472 170.267 190.35 170.736 190.344 171.253V173.392C190.344 174.04 190.464 174.599 190.702 175.071C190.947 175.543 191.29 175.906 191.734 176.162C192.177 176.418 192.702 176.545 193.31 176.545C193.714 176.545 194.083 176.489 194.418 176.375C194.754 176.261 195.04 176.091 195.279 175.864C195.518 175.636 195.7 175.358 195.825 175.028L199.183 175.25C199.012 176.057 198.663 176.761 198.134 177.364C197.612 177.96 196.935 178.426 196.106 178.761C195.282 179.091 194.33 179.256 193.251 179.256ZM201.629 179V165.909H205.259V179H201.629ZM203.452 164.222C202.913 164.222 202.45 164.043 202.063 163.685C201.683 163.321 201.492 162.886 201.492 162.381C201.492 161.881 201.683 161.452 202.063 161.094C202.45 160.73 202.913 160.548 203.452 160.548C203.992 160.548 204.452 160.73 204.833 161.094C205.219 161.452 205.413 161.881 205.413 162.381C205.413 162.886 205.219 163.321 204.833 163.685C204.452 164.043 203.992 164.222 203.452 164.222ZM208.168 179V165.909H211.688V168.193H211.824C212.063 167.381 212.463 166.767 213.026 166.352C213.588 165.932 214.236 165.722 214.969 165.722C215.151 165.722 215.347 165.733 215.557 165.756C215.767 165.778 215.952 165.81 216.111 165.849V169.071C215.94 169.02 215.705 168.974 215.403 168.935C215.102 168.895 214.827 168.875 214.577 168.875C214.043 168.875 213.565 168.991 213.145 169.224C212.73 169.452 212.401 169.77 212.156 170.179C211.918 170.588 211.798 171.06 211.798 171.594V179H208.168ZM223.293 179.256C221.969 179.256 220.825 178.974 219.859 178.412C218.898 177.844 218.157 177.054 217.634 176.043C217.112 175.026 216.85 173.847 216.85 172.506C216.85 171.153 217.112 169.972 217.634 168.96C218.157 167.943 218.898 167.153 219.859 166.591C220.825 166.023 221.969 165.739 223.293 165.739C224.617 165.739 225.759 166.023 226.719 166.591C227.685 167.153 228.43 167.943 228.952 168.96C229.475 169.972 229.737 171.153 229.737 172.506C229.737 173.847 229.475 175.026 228.952 176.043C228.43 177.054 227.685 177.844 226.719 178.412C225.759 178.974 224.617 179.256 223.293 179.256ZM223.31 176.443C223.913 176.443 224.415 176.273 224.819 175.932C225.222 175.585 225.526 175.114 225.731 174.517C225.941 173.92 226.046 173.241 226.046 172.48C226.046 171.719 225.941 171.04 225.731 170.443C225.526 169.847 225.222 169.375 224.819 169.028C224.415 168.682 223.913 168.509 223.31 168.509C222.702 168.509 222.191 168.682 221.776 169.028C221.367 169.375 221.058 169.847 220.847 170.443C220.643 171.04 220.54 171.719 220.54 172.48C220.54 173.241 220.643 173.92 220.847 174.517C221.058 175.114 221.367 175.585 221.776 175.932C222.191 176.273 222.702 176.443 223.31 176.443Z" fill="white"/>
<path d="M158.787 27.737H62.7639C60.2418 27.737 58.1977 29.7869 58.1977 32.3033C58.1977 34.8196 60.2418 36.8695 62.7639 36.8695H158.787C165.19 36.8695 170.407 42.0806 170.407 48.501V107.505C170.407 113.914 165.19 119.125 158.787 119.125H63.2188C56.8157 119.125 51.5989 113.914 51.5989 107.505V48.0461C51.5989 45.5182 49.5489 43.4741 47.0211 43.4741C44.5048 43.4741 42.4607 45.5182 42.4607 48.0461V107.505C42.4607 118.958 51.7716 128.263 63.2188 128.263H158.787C170.234 128.263 179.545 118.958 179.545 107.505V48.501C179.545 37.0422 170.234 27.737 158.787 27.737ZM143.441 92.6085C140.666 92.6085 138.42 90.357 138.42 87.5989C138.42 85.0653 136.37 83.0211 133.848 83.0211C131.326 83.0211 129.282 85.0653 129.282 87.5989C129.282 93.7889 133.313 99.0173 138.869 100.929V103.514C138.869 106.036 140.919 108.092 143.441 108.092C145.969 108.092 148.008 106.036 148.008 103.514V100.929C153.57 99.0173 157.595 93.7889 157.595 87.5989C157.595 79.7793 151.25 73.428 143.441 73.428C140.666 73.428 138.42 71.1766 138.42 68.4127C138.42 65.643 140.666 63.3916 143.441 63.3916C146.205 63.3916 148.457 65.643 148.457 68.4127C148.457 70.9347 150.501 72.9846 153.029 72.9846C155.551 72.9846 157.595 70.9347 157.595 68.4127C157.595 62.2111 153.57 56.9942 148.008 55.0768V52.4798C148.008 49.9578 145.969 47.9079 143.441 47.9079C140.919 47.9079 138.869 49.9578 138.869 52.4798V55.0768C133.313 56.9942 129.282 62.2111 129.282 68.4127C129.282 76.2207 135.633 82.5662 143.441 82.5662C146.205 82.5662 148.457 84.8177 148.457 87.5989C148.457 90.357 146.205 92.6085 143.441 92.6085ZM65.3033 105.42H111C113.522 105.42 115.566 103.365 115.566 100.848C115.566 98.3321 113.522 96.2822 111 96.2822H65.3033C62.7812 96.2822 60.737 98.3321 60.737 100.848C60.737 103.365 62.7812 105.42 65.3033 105.42ZM65.3033 59.7236H111C113.522 59.7236 115.566 57.6737 115.566 55.1574C115.566 52.6296 113.522 50.5854 111 50.5854H65.3033C62.7812 50.5854 60.737 52.6296 60.737 55.1574C60.737 57.6737 62.7812 59.7236 65.3033 59.7236ZM65.3033 82.5662H111C113.522 82.5662 115.566 80.5221 115.566 77.9942C115.566 75.4722 113.522 73.428 111 73.428H65.3033C62.7812 73.428 60.737 75.4722 60.737 77.9942C60.737 80.5221 62.7812 82.5662 65.3033 82.5662Z" fill="white"/>
</svg>
