<svg width="400" height="400" viewBox="0 0 400 400" fill="none" xmlns="http://www.w3.org/2000/svg">
<path d="M247.368 150.204H153.192C150.718 150.204 148.713 152.214 148.713 154.682C148.713 157.15 150.718 159.16 153.192 159.16H247.368C253.648 159.16 258.764 164.271 258.764 170.568V228.437C258.764 234.723 253.648 239.834 247.368 239.834H153.638C147.358 239.834 142.241 234.723 142.241 228.437V170.122C142.241 167.643 140.231 165.638 137.751 165.638C135.284 165.638 133.279 167.643 133.279 170.122V228.437C133.279 239.67 142.411 248.796 153.638 248.796H247.368C258.595 248.796 267.727 239.67 267.727 228.437V170.568C267.727 159.33 258.595 150.204 247.368 150.204V150.204ZM232.318 213.828C229.595 213.828 227.393 211.619 227.393 208.914C227.393 206.429 225.383 204.425 222.909 204.425C220.435 204.425 218.431 206.429 218.431 208.914C218.431 214.985 222.384 220.113 227.834 221.988V224.524C227.834 226.997 229.844 229.013 232.318 229.013C234.797 229.013 236.796 226.997 236.796 224.524V221.988C242.251 220.113 246.199 214.985 246.199 208.914C246.199 201.245 239.975 195.016 232.318 195.016C229.595 195.016 227.393 192.808 227.393 190.097C227.393 187.381 229.595 185.172 232.318 185.172C235.028 185.172 237.236 187.381 237.236 190.097C237.236 192.571 239.241 194.581 241.721 194.581C244.194 194.581 246.199 192.571 246.199 190.097C246.199 184.015 242.251 178.898 236.796 177.018V174.471C236.796 171.997 234.797 169.987 232.318 169.987C229.844 169.987 227.834 171.997 227.834 174.471V177.018C222.384 178.898 218.431 184.015 218.431 190.097C218.431 197.755 224.66 203.978 232.318 203.978C235.028 203.978 237.236 206.187 237.236 208.914C237.236 211.619 235.028 213.828 232.318 213.828V213.828ZM155.682 226.393H200.5C202.974 226.393 204.978 224.377 204.978 221.909C204.978 219.441 202.974 217.431 200.5 217.431H155.682C153.208 217.431 151.204 219.441 151.204 221.909C151.204 224.377 153.208 226.393 155.682 226.393V226.393ZM155.682 181.575H200.5C202.974 181.575 204.978 179.565 204.978 177.097C204.978 174.617 202.974 172.613 200.5 172.613H155.682C153.208 172.613 151.204 174.617 151.204 177.097C151.204 179.565 153.208 181.575 155.682 181.575V181.575ZM155.682 203.978H200.5C202.974 203.978 204.978 201.974 204.978 199.494C204.978 197.021 202.974 195.016 200.5 195.016H155.682C153.208 195.016 151.204 197.021 151.204 199.494C151.204 201.974 153.208 203.978 155.682 203.978V203.978Z" fill="white"/>
</svg>
