<svg width="30" height="30" viewBox="0 0 30 30" fill="none" xmlns="http://www.w3.org/2000/svg">
<path d="M11.0918 22.4766L5.21484 16.3242C4.86328 15.9844 4.6875 15.5215 4.6875 15.0117C4.6875 14.502 4.86328 14.0449 5.21484 13.6992L11.0918 7.52344C11.7891 6.79101 12.9258 6.79101 13.623 7.52344C14.3203 8.25586 14.3203 9.43945 13.623 10.1719L10.7988 13.125L23.5137 13.125C24.5098 13.125 25.3125 13.9629 25.3125 15C25.3125 16.0371 24.5098 16.875 23.5195 16.875L10.8047 16.875L13.6289 19.8281C14.3262 20.5605 14.3262 21.7441 13.6289 22.4766C12.9258 23.209 11.7949 23.209 11.0918 22.4766Z" fill="white"/>
</svg>
