<svg width="30" height="30" viewBox="0 0 30 30" fill="none" xmlns="http://www.w3.org/2000/svg">
<path d="M18.9082 7.52344L24.7852 13.6758C25.1367 14.0156 25.3125 14.4785 25.3125 14.9883C25.3125 15.498 25.1367 15.9551 24.7852 16.3008L18.9082 22.4766C18.2109 23.209 17.0742 23.209 16.377 22.4766C15.6797 21.7441 15.6797 20.5605 16.377 19.8281L19.2012 16.875H6.48633C5.49023 16.875 4.6875 16.0371 4.6875 15C4.6875 13.9629 5.49023 13.125 6.48047 13.125H19.1953L16.3711 10.1719C15.6738 9.43945 15.6738 8.25586 16.3711 7.52344C17.0742 6.79102 18.2051 6.79102 18.9082 7.52344Z" fill="white"/>
</svg>
