<svg width="36" height="36" viewBox="0 0 36 36" fill="none" xmlns="http://www.w3.org/2000/svg">
<path d="M28.8646 6.3649H6.83C6.25125 6.3649 5.78218 6.8353 5.78218 7.41272C5.78218 7.99014 6.25125 8.46054 6.83 8.46054H28.8646C30.334 8.46054 31.5311 9.65635 31.5311 11.1296V24.6694C31.5311 26.14 30.334 27.3359 28.8646 27.3359H6.93438C5.46506 27.3359 4.26792 26.14 4.26792 24.6694V11.0253C4.26792 10.4452 3.79753 9.97612 3.21746 9.97612C2.64003 9.97612 2.17096 10.4452 2.17096 11.0253V24.6694C2.17096 27.2975 4.30756 29.4328 6.93438 29.4328H28.8646C31.4915 29.4328 33.6281 27.2975 33.6281 24.6694V11.1296C33.6281 8.50018 31.4915 6.3649 28.8646 6.3649ZM25.3433 21.2511C24.7064 21.2511 24.1911 20.7345 24.1911 20.1015C24.1911 19.5201 23.7207 19.0511 23.1419 19.0511C22.5632 19.0511 22.0941 19.5201 22.0941 20.1015C22.0941 21.522 23.019 22.7217 24.2941 23.1604V23.7537C24.2941 24.3325 24.7645 24.8042 25.3433 24.8042C25.9233 24.8042 26.3911 24.3325 26.3911 23.7537V23.1604C27.6675 22.7217 28.5911 21.522 28.5911 20.1015C28.5911 18.3072 27.135 16.8497 25.3433 16.8497C24.7064 16.8497 24.1911 16.3331 24.1911 15.6988C24.1911 15.0633 24.7064 14.5466 25.3433 14.5466C25.9775 14.5466 26.4942 15.0633 26.4942 15.6988C26.4942 16.2776 26.9632 16.748 27.5433 16.748C28.122 16.748 28.5911 16.2776 28.5911 15.6988C28.5911 14.2758 27.6675 13.0786 26.3911 12.6386V12.0427C26.3911 11.4639 25.9233 10.9935 25.3433 10.9935C24.7645 10.9935 24.2941 11.4639 24.2941 12.0427V12.6386C23.019 13.0786 22.0941 14.2758 22.0941 15.6988C22.0941 17.4906 23.5515 18.9467 25.3433 18.9467C25.9775 18.9467 26.4942 19.4633 26.4942 20.1015C26.4942 20.7345 25.9775 21.2511 25.3433 21.2511ZM7.41271 24.1911H17.8989C18.4776 24.1911 18.9467 23.7194 18.9467 23.1419C18.9467 22.5645 18.4776 22.0941 17.8989 22.0941H7.41271C6.83396 22.0941 6.36489 22.5645 6.36489 23.1419C6.36489 23.7194 6.83396 24.1911 7.41271 24.1911ZM7.41271 13.7049H17.8989C18.4776 13.7049 18.9467 13.2345 18.9467 12.6571C18.9467 12.077 18.4776 11.608 17.8989 11.608H7.41271C6.83396 11.608 6.36489 12.077 6.36489 12.6571C6.36489 13.2345 6.83396 13.7049 7.41271 13.7049ZM7.41271 18.9467H17.8989C18.4776 18.9467 18.9467 18.4776 18.9467 17.8975C18.9467 17.3188 18.4776 16.8497 17.8989 16.8497H7.41271C6.83396 16.8497 6.36489 17.3188 6.36489 17.8975C6.36489 18.4776 6.83396 18.9467 7.41271 18.9467Z" fill="white"/>
</svg>
