<svg width="29" height="29" viewBox="0 0 29 29" fill="none" xmlns="http://www.w3.org/2000/svg">
<g clip-path="url(#clip0_17_104)">
<path d="M1.36189 1.68054H28.0001C28.3874 1.68054 28.7013 1.99477 28.7013 2.38206V19.2558C28.7013 19.6431 28.3874 19.957 28.0001 19.957H15.3825V22.2219C16.5468 22.5371 17.3596 23.5972 17.3596 24.8078C17.3596 26.2873 16.1605 27.4867 14.681 27.4867C13.2015 27.4867 12.0024 26.2873 12.0024 24.8078C12.0024 23.5975 12.8152 22.5371 13.9795 22.2219V19.957H1.36189C0.974598 19.957 0.660706 19.6431 0.660706 19.2558V2.38206C0.660706 1.99477 0.974598 1.68054 1.36189 1.68054ZM14.681 23.5319C13.9764 23.5319 13.4051 24.1032 13.4051 24.8078C13.4051 25.5127 13.9764 26.084 14.681 26.084C15.3856 26.084 15.9569 25.5127 15.9569 24.8078C15.9569 24.1032 15.3856 23.5319 14.681 23.5319ZM5.62277 14.7774C5.15126 15.5655 3.95116 14.8478 4.42302 14.0597L7.87042 8.27972C8.14372 7.82309 8.80093 7.83188 9.06916 8.27769L10.9156 11.3256L15.0504 6.75085C15.666 6.0703 16.7017 7.00758 16.0861 7.68779L11.3598 12.9167C11.0638 13.3054 10.4597 13.28 10.2026 12.8535L8.47385 9.99767L5.62277 14.7774ZM18.7623 8.27532C17.8399 8.27532 17.8399 6.87262 18.7623 6.87262H24.3393C25.2617 6.87262 25.2617 8.27532 24.3393 8.27532H18.7623ZM18.7623 14.7649C17.8399 14.7649 17.8399 13.3622 18.7623 13.3622H24.3393C25.2617 13.3622 25.2617 14.7649 24.3393 14.7649H18.7623ZM18.7623 11.5201C17.8399 11.5201 17.8399 10.1174 18.7623 10.1174H24.3393C25.2617 10.1174 25.2617 11.5201 24.3393 11.5201H18.7623ZM27.2986 3.08325H2.06341V18.5543H27.2986V3.08325Z" fill="white"/>
</g>
<defs>
<clipPath id="clip0_17_104">
<rect width="28.6379" height="28.6379" fill="white" transform="translate(0.362061 0.264648)"/>
</clipPath>
</defs>
</svg>
